<svg width="20" height="20" viewBox="0 0 20 20" fill="none" xmlns="http://www.w3.org/2000/svg">
<path d="M18.9093 1.09074C18.2059 0.387422 17.2707 7.8125e-05 16.2761 7.8125e-05L3.72398 0C1.67055 0.000117188 0 1.6707 3.90625e-05 3.72398L0 16.2761C3.90625e-05 18.3295 1.67062 20 3.72402 20H16.2761C18.3295 20 20 18.3295 20 16.2761V3.72402C20 2.7293 19.6127 1.7941 18.9093 1.09074ZM18.8281 16.2761C18.8281 17.6833 17.6833 18.8281 16.2761 18.8281H3.72402C2.3168 18.8281 1.17191 17.6832 1.17188 16.2761L1.17191 3.72395C1.17187 2.3168 2.31676 1.17195 3.72402 1.17188L16.2761 1.17195C16.9577 1.17195 17.5986 1.43738 18.0807 1.91938C18.5627 2.40141 18.8281 3.0423 18.8281 3.72402V16.2761Z" fill="white"/>
<path d="M13.5208 8.49578C13.292 8.26699 12.921 8.26695 12.6921 8.49578L10.586 10.602L10.5859 4.35156C10.5859 4.02797 10.3236 3.76562 9.99998 3.76562C9.67638 3.76562 9.41404 4.02797 9.41404 4.35156L9.41408 10.6021L7.30775 8.49586C7.07896 8.26703 6.70794 8.26703 6.47912 8.49586C6.25029 8.72469 6.25029 9.09566 6.47912 9.32449L9.58568 12.431C9.69556 12.5409 9.84459 12.6026 9.99998 12.6026C10.1554 12.6026 10.3044 12.5409 10.4143 12.431L13.5208 9.32441C13.7496 9.09559 13.7496 8.72461 13.5208 8.49578Z" fill="white"/>
<path d="M15.6486 15.0626H4.35168C4.02809 15.0626 3.76575 15.3249 3.76575 15.6485C3.76575 15.9721 4.02809 16.2344 4.35168 16.2344H15.6486C15.9722 16.2344 16.2345 15.9721 16.2345 15.6485C16.2345 15.3249 15.9722 15.0626 15.6486 15.0626Z" fill="white"/>
</svg>
