<svg width="18" height="20" viewBox="0 0 18 20" fill="none" xmlns="http://www.w3.org/2000/svg">
<path d="M17.8036 17.8961C17.6589 17.4023 15.3036 8.58487 14.9832 7.38494C14.664 6.18558 13.8296 5.86487 12.8897 5.86487C12.5655 5.86487 11.3155 5.86487 9.82568 5.86487V4.75676C15.5245 4.2264 17.0443 0 17.0443 0H0.57765C0.57765 0 1.85207 4.46442 7.94583 4.78119V5.86424C6.55941 5.86424 5.41773 5.86424 5.11016 5.86424C4.1702 5.86424 3.33647 6.18495 3.01634 7.38436C2.69647 8.58429 0.341414 17.4017 0.196479 17.8955C0.0158214 18.5144 0.071978 19.3225 1.33138 19.3225C1.47027 19.3225 1.7852 19.3225 2.23072 19.3225V20H15.6148V19.3231C16.1372 19.3231 16.5138 19.3231 16.6671 19.3231C17.9281 19.3231 17.9842 18.515 17.8036 17.8961ZM9.0002 7.00986C12.0858 7.00986 14.5858 9.50864 14.5858 12.5939C14.5858 15.6793 12.0858 18.1787 9.0002 18.1787C5.91579 18.1787 3.41574 15.6793 3.41574 12.5939C3.41574 9.50859 5.91573 7.00986 9.0002 7.00986Z" fill="#282828"/>
<path d="M5.794 10.1363L5.22088 9.72827L5.05151 9.96572L5.61639 10.3664C5.66887 10.2857 5.73385 10.2138 5.794 10.1363Z" fill="#282828"/>
<path d="M7.37018 8.88487L7.05772 8.25317L6.7959 8.38319L7.11445 9.02439C7.20024 8.97885 7.2814 8.92516 7.37018 8.88487Z" fill="#282828"/>
<path d="M4.94443 12.594C4.94443 12.561 4.95388 12.5311 4.95509 12.4988H4.24402V12.7899H4.96455C4.96213 12.7234 4.94443 12.6611 4.94443 12.594Z" fill="#282828"/>
<path d="M13.3829 10.4565L13.2431 10.2019L12.5125 10.6017C12.5589 10.6847 12.6083 10.7702 12.6511 10.8562L13.3829 10.4565Z" fill="#282828"/>
<path d="M11.6867 8.57885L11.4364 8.42871L11.0317 9.10254C11.1154 9.15197 11.205 9.19132 11.2868 9.24569L11.6867 8.57885Z" fill="#282828"/>
<path d="M9.21833 8.56082V7.8125H8.92688V8.54553C8.95131 8.54553 8.9751 8.53881 8.99953 8.53881C9.07518 8.53881 9.14447 8.55682 9.21833 8.56082Z" fill="#282828"/>
<path d="M11.351 16.9067L10.9616 16.1218C10.8773 16.17 10.7937 16.2219 10.7058 16.2622L11.0885 17.0361L11.351 16.9067Z" fill="#282828"/>
<path d="M13.0953 15.3235L12.3854 14.8193C12.3329 14.9011 12.267 14.9731 12.2084 15.0494L12.9256 15.5603L13.0953 15.3235Z" fill="#282828"/>
<path d="M13.0563 12.5941C13.0563 12.6607 13.0403 12.7236 13.0374 12.7894H13.904V12.4983H13.0477C13.0471 12.5319 13.0563 12.5611 13.0563 12.5941Z" fill="#282828"/>
<path d="M8.92688 16.6423V17.4729H9.21833V16.627C9.14447 16.6306 9.07518 16.6489 8.99953 16.6489C8.9751 16.649 8.95131 16.6423 8.92688 16.6423Z" fill="#282828"/>
<path d="M5.42379 14.4666L4.76184 14.8267L4.90194 15.0818L5.56143 14.7229C5.51136 14.6393 5.46834 14.5533 5.42379 14.4666Z" fill="#282828"/>
<path d="M7.12395 16.1688C7.03696 16.123 6.94997 16.0791 6.86697 16.0291L6.45953 16.7065L6.70948 16.8567L7.12395 16.1688Z" fill="#282828"/>
<path d="M7.29028 15.4334L7.51459 15.5604L8.91961 13.2099C8.97698 13.2228 9.03014 13.2447 9.09087 13.2447C9.58456 13.2447 9.9838 12.8449 9.9838 12.3524C9.9838 11.8592 9.58456 11.4595 9.09087 11.4595C8.59891 11.4595 8.19882 11.8592 8.19882 12.3524C8.19882 12.6343 8.33772 12.8748 8.54217 13.0396L7.29028 15.4334ZM9.09139 12.0972C9.23396 12.0972 9.34775 12.212 9.34775 12.3524C9.34775 12.4934 9.23333 12.6087 9.09139 12.6087C8.95013 12.6087 8.83688 12.4934 8.83688 12.3524C8.83688 12.212 8.95013 12.0972 9.09139 12.0972Z" fill="#282828"/>
</svg>
