<svg width="34" height="34" viewBox="0 0 34 34" fill="none" xmlns="http://www.w3.org/2000/svg">
<g clip-path="url(#clip0)">
<path d="M23.02 20.5886L22.2825 20.3222C22.1666 20.2768 22.0843 20.1733 22.077 20.0442L22.0213 19.1638L21.0755 19.0569C20.9229 19.0377 20.8018 18.9118 20.7942 18.761L20.7434 17.7974L19.777 17.7561C19.6502 17.7518 19.5414 17.6718 19.4934 17.5536C19.4467 17.4406 19.3915 17.2752 19.3322 17.0945C18.9051 17.8641 18.394 18.5852 17.8 19.2412C16.3531 20.83 14.5485 21.8376 12.7233 22.0755C10.7718 22.331 8.92208 21.7238 7.37752 20.3196C5.83296 18.9155 4.84938 16.7932 4.68154 14.4961C4.57627 13.1049 4.78391 11.7608 5.25772 10.5747C4.44444 11.6552 3.88759 13 3.63294 14.515C3.16072 17.3167 3.80316 20.2237 5.35497 22.2865C7.14494 24.6676 10.0877 26.0738 13.2288 26.0402C16.9263 26.0048 20.3885 24.0726 23.02 20.5886V20.5886ZM10.2863 25.1034C10.046 25.0422 9.80305 24.9708 9.57028 24.8967C9.40308 24.8433 9.31183 24.6657 9.3704 24.4972C9.42387 24.33 9.60142 24.2387 9.76998 24.2973C9.9912 24.369 10.2162 24.4343 10.4448 24.4931C10.6144 24.5351 10.7158 24.7099 10.6739 24.8794C10.6242 25.0402 10.4558 25.1453 10.2863 25.1034V25.1034ZM14.136 25.3712C13.5728 25.4293 13.0039 25.4453 12.4393 25.4164C12.2626 25.4092 12.0846 25.3968 11.9103 25.378C11.736 25.3592 11.6119 25.2014 11.6307 25.0271C11.6508 24.8579 11.8022 24.73 11.97 24.7451C12.1378 24.7602 12.3043 24.7701 12.4708 24.7801C13.0072 24.8057 13.5428 24.7877 14.0741 24.7327C14.8172 24.6537 15.5463 24.502 16.2615 24.2776C16.4268 24.2224 16.6049 24.3166 16.6602 24.482C16.7154 24.6473 16.6212 24.8254 16.4558 24.8807L16.4507 24.882C15.6925 25.1289 14.9175 25.2929 14.136 25.3712V25.3712Z" fill="#282828"/>
<path d="M24.5549 7.73531L24.5563 7.7404C24.6013 7.9085 24.7706 8.01054 24.9401 7.97059C25.1082 7.92555 25.2102 7.75626 25.1703 7.58681C25.0989 7.30019 25.1956 7.19239 25.2879 7.12944C25.5547 6.94331 26.1207 6.97728 26.3665 7.14072C26.7585 7.40147 26.992 7.82479 27.0569 8.4134C27.1121 8.88448 27.0432 9.42162 26.8872 9.96022C26.6476 10.6959 26.1779 11.3677 25.6859 12.0783C25.3149 12.609 24.9364 13.1526 24.6419 13.7447C24.3259 13.8895 23.986 13.986 23.6398 14.0187L23.5926 14.0259C21.6145 14.2229 20.3377 14.898 19.7966 16.0366C19.7526 16.1576 19.8581 16.6534 20.0313 17.1366L21.0745 17.1792C21.2345 17.1855 21.3672 17.3137 21.3789 17.4798L21.4338 18.4587L22.3745 18.567C22.527 18.5862 22.6417 18.7083 22.6544 18.8578L22.7136 19.7918L23.4704 20.0695C24.7055 18.8923 24.7533 17.6239 24.8008 16.4974C24.8052 16.1468 24.8363 15.7945 24.8855 15.4483C24.9894 14.8581 25.1525 14.2849 25.3696 13.7299L26.0243 12.7301C26.7456 11.9581 27.2696 11.0206 27.5415 9.99782C27.5875 9.84355 27.622 9.68691 27.6462 9.533C27.6449 9.5279 27.6486 9.52145 27.6472 9.51635C27.7174 9.1263 27.7349 8.72306 27.6951 8.32975C27.6092 7.56113 27.2743 6.96299 26.7245 6.60255C26.2874 6.3157 25.4306 6.25592 24.9337 6.60198C24.7175 6.75272 24.3996 7.09449 24.5549 7.73531V7.73531Z" fill="#282828"/>
</g>
<defs>
<clipPath id="clip0">
<rect width="27" height="27" fill="white" transform="translate(26.08) rotate(75)"/>
</clipPath>
</defs>
</svg>
