<svg width="27" height="27" viewBox="0 0 27 27" fill="none" xmlns="http://www.w3.org/2000/svg">
<g clip-path="url(#clip0)">
<path d="M3.51367 11.931C6.44458 13.0271 8.61169 14.5114 10.1775 15.9646C10.5657 14.6305 10.1899 13.0647 9.21916 12.0688C7.98539 10.8037 6.04384 10.5157 4.62829 10.4905C3.05642 10.4717 1.49065 10.7097 0 11.1983C0.958295 12 1.69738 13.0271 2.14191 14.1921C2.29237 14.5867 2.40491 14.9875 2.5177 15.3757C2.59916 15.6576 2.67427 15.9206 2.7621 16.1838C2.87464 16.5469 3.03758 16.8977 3.24431 17.2233C3.98951 18.3507 5.24212 18.9082 6.68262 18.7516C7.8726 18.62 8.9312 18.0187 9.58882 17.1357C8.11065 15.7013 6.00617 14.1982 3.07525 13.1022L3.51367 11.931Z" fill="#282828"/>
<path d="M13.8037 13.5345C13.0272 15.0814 12.4572 16.7223 12.1002 18.4133C11.5867 17.7307 10.9291 16.9728 10.1024 16.2088C10.0334 16.3966 9.93947 16.597 9.81421 16.8037C10.6409 17.5866 11.286 18.357 11.7746 19.0335C13.2714 21.1003 13.7037 22.7913 13.7098 22.8099L14.3175 22.6597C14.2986 22.5907 13.9165 21.0815 12.6013 19.1274C12.9333 17.2859 13.5219 15.4949 14.3613 13.8224C14.3674 13.8163 14.3674 13.81 14.3738 13.8038C14.2172 13.6032 14.0856 13.4029 13.973 13.215C13.9165 13.3214 13.8602 13.4281 13.8037 13.5345Z" fill="#282828"/>
<path d="M13.7224 12.7765C13.7224 12.7704 13.7285 12.7704 13.7285 12.7641C13.5594 12.4071 13.4719 12.1378 13.4467 12.0502C13.5218 12.3007 13.6096 12.5449 13.7224 12.7765Z" fill="#282828"/>
<path d="M22.3779 4.20251C21.7139 4.20251 21.0563 4.23995 20.3987 4.30894C18.5009 4.51567 15.927 5.14809 14.4114 7.01453C13.2965 8.38628 12.9457 10.3528 13.4467 12.0502C13.4719 12.1314 13.5595 12.4071 13.7285 12.7641C14.5679 11.2546 15.5637 9.97064 16.716 8.91864C18.3382 7.4341 20.3299 6.40706 22.4843 5.95617L22.5156 6.10638L22.5594 6.30064L22.7285 7.08963L22.7473 7.18358C20.8121 7.59068 19.0208 8.50518 17.5615 9.84538C16.3715 10.9353 15.3508 12.3132 14.5239 13.9477C14.5239 13.954 14.5178 13.9604 14.5178 13.9665C15.5323 15.1002 17.0668 15.808 18.714 15.833C20.6805 15.8706 22.3654 14.9248 23.2359 13.3089C23.4487 12.9082 23.618 12.4384 23.7619 11.831C23.8497 11.4738 23.9185 11.1107 23.9875 10.7286C24.0814 10.2087 24.1817 9.67021 24.3319 9.14396C24.808 7.47178 25.7286 5.95617 27.0001 4.77231C25.4906 4.39652 23.9373 4.20251 22.3779 4.20251V4.20251Z" fill="#282828"/>
</g>
<defs>
<clipPath id="clip0">
<rect width="27" height="27" fill="white"/>
</clipPath>
</defs>
</svg>
