<svg width="20" height="20" viewBox="0 0 20 20" fill="none" xmlns="http://www.w3.org/2000/svg">
<g clip-path="url(#clip0)">
<path d="M11.8047 5.40825C12.2513 5.4714 12.6886 5.58356 13.1207 5.71635C13.875 5.94864 14.5868 6.27135 15.2563 6.68999C15.3029 6.71888 15.365 6.73723 15.4199 6.73723C16.2062 6.74047 16.9922 6.73934 17.7779 6.73999C17.8412 6.73999 17.9042 6.74664 17.9673 6.75021C17.9673 6.76564 17.9696 6.77213 17.967 6.7757C17.9303 6.83219 17.8931 6.88787 17.8563 6.9442C17.5896 7.35326 17.3617 7.78116 17.2271 8.25418C17.2125 8.30499 17.2094 8.34752 17.2438 8.39735C17.9438 9.40249 18.1671 10.506 17.8746 11.6955C17.6182 12.7388 17.0201 13.5522 16.1114 14.1282C15.462 14.54 14.7445 14.7361 13.978 14.7403C13.6559 14.7423 13.3355 14.6989 13.0209 14.6174C12.2544 14.4186 11.5973 14.0365 11.0557 13.4578C10.9843 13.3818 10.9171 13.3024 10.841 13.2165C10.5546 13.6433 10.2728 14.0631 9.9842 14.4939C9.69672 14.0644 9.41881 13.6487 9.14156 13.2346C9.1224 13.2446 9.11688 13.2458 9.11315 13.2493C9.10682 13.2545 9.10146 13.2609 9.09643 13.2669C8.44144 14.0404 7.61746 14.5145 6.61363 14.6731C6.05522 14.7616 5.50217 14.7298 4.95983 14.5803C4.19121 14.3691 3.538 13.9636 3.01027 13.3652C2.49456 12.7802 2.1738 12.101 2.05335 11.3288C1.91553 10.6081 2.08338 9.91317 2.12526 9.74451C2.24668 9.25428 2.45836 8.80415 2.74892 8.39021C2.76938 8.36083 2.77652 8.30889 2.76678 8.27382C2.64828 7.83927 2.44407 7.444 2.20496 7.06545C2.14425 6.96919 2.07153 6.88008 2.00433 6.78771C2.00433 6.77716 2.00433 6.76628 2.00433 6.75557C2.0178 6.75719 2.03111 6.75979 2.04426 6.75979C2.84876 6.76012 3.65309 6.76044 4.45759 6.75882C4.49265 6.75882 4.53161 6.74437 4.56148 6.72522C5.1267 6.36258 5.72894 6.07525 6.36169 5.85157C6.818 5.69054 7.28388 5.5649 7.75901 5.47286C8.21905 5.3839 8.68152 5.32124 9.14886 5.2904C10.2882 5.20274 11.1989 5.32335 11.8047 5.40825ZM10.7962 10.7214C10.7962 12.488 12.2295 13.9313 13.9898 13.9245C15.7567 13.9181 17.1836 12.5154 17.1823 10.7294C17.181 8.88872 15.6879 7.50504 13.9213 7.54091C12.1773 7.57711 10.8121 8.98287 10.7962 10.7214ZM6.00571 7.52874C4.28731 7.5138 2.78902 8.94797 2.81905 10.7748C2.84697 12.4784 4.25111 13.9227 6.04142 13.9072C7.79196 13.8923 9.19902 12.4629 9.20227 10.7318C9.20503 8.95333 7.78076 7.52874 6.00571 7.52874ZM6.16414 6.69535C7.13486 6.7546 7.98757 7.09289 8.70798 7.74804C9.42693 8.4019 9.84817 9.2176 10.0012 10.1768C10.1587 9.22896 10.5689 8.42089 11.2744 7.77353C11.981 7.12552 12.8223 6.78544 13.7772 6.71353C12.6441 6.20982 11.4494 5.99588 10.2196 5.97218C8.82193 5.94474 7.46244 6.15074 6.16414 6.69535Z" fill="white"/>
<path d="M13.9834 8.70598C15.0767 8.70419 15.9622 9.58498 15.9622 10.6771C15.9622 11.7735 15.0918 12.621 14.0649 12.6601C12.918 12.7041 12.0004 11.7904 12.0007 10.682C12.0017 9.56096 12.9258 8.68747 13.9834 8.70598ZM15.2729 10.682C15.2724 9.96937 14.6963 9.39019 13.9886 9.39019C13.2727 9.39019 12.69 9.96629 12.6871 10.6768C12.6845 11.3842 13.2701 11.9728 13.9793 11.9748C14.6897 11.9775 15.2733 11.3933 15.2729 10.682Z" fill="white"/>
<path d="M5.96355 8.70593C7.05617 8.70479 7.94297 9.58721 7.94021 10.6792C7.93713 11.7845 7.06591 12.6135 6.05705 12.6594C4.90566 12.712 3.97665 11.7942 3.97876 10.6798C3.98104 9.55085 4.9115 8.6871 5.96355 8.70593ZM7.25162 10.6776C7.24951 9.96056 6.66967 9.38901 5.94585 9.3903C5.24768 9.3916 4.66265 9.98085 4.66427 10.6816C4.66606 11.3905 5.25044 11.9734 5.9616 11.9754C6.66837 11.977 7.2534 11.3884 7.25162 10.6776Z" fill="white"/>
<path d="M13.9841 10.026C14.3464 10.0257 14.6435 10.3229 14.6401 10.6831C14.6365 11.0441 14.3445 11.3366 13.9881 11.3368C13.6213 11.3368 13.3263 11.0469 13.3272 10.6876C13.3278 10.3149 13.6143 10.0263 13.9841 10.026Z" fill="white"/>
<path d="M5.95999 10.0201C6.32782 10.0198 6.62342 10.3136 6.62488 10.6803C6.62634 11.0439 6.32798 11.3425 5.96194 11.3433C5.58712 11.3441 5.29802 11.0545 5.29834 10.6777C5.29834 10.3078 5.5868 10.0206 5.95999 10.0201Z" fill="white"/>
</g>
<rect x="0.5" y="0.5" width="19" height="19" rx="2.5" stroke="white"/>
<defs>
<clipPath id="clip0">
<rect width="16" height="16" fill="white" transform="translate(2 2)"/>
</clipPath>
</defs>
</svg>
